<mxfile host="app.diagrams.net" modified="2023-09-01T09:51:54.049Z" agent="Mozilla/5.0 (X11; Linux x86_64) AppleWebKit/537.36 (KHTML, like Gecko) Chrome/115.0.0.0 Safari/537.36" version="21.7.1" etag="nOGkwGVgTrkJIuF2lMg6" type="github">
  <diagram name="Page-1" id="LBmL-ojdaAE_LHNN24SR">
    <mxGraphModel>
      <root>
        <mxCell id="0" />
        <mxCell id="1" parent="0" />
      </root>
    </mxGraphModel>
  </diagram>
</mxfile>
